<?xml version="1.0" standalone="no"?>
<!DOCTYPE svg PUBLIC "-//W3C//DTD SVG 20010904//EN"
 "http://www.w3.org/TR/2001/REC-SVG-20010904/DTD/svg10.dtd">
<svg version="1.0" xmlns="http://www.w3.org/2000/svg"
 width="772.000000pt" height="772.000000pt" viewBox="0 0 772.000000 772.000000"
 preserveAspectRatio="xMidYMid meet">
<metadata>
Created by potrace 1.14, written by Peter Selinger 2001-2017
</metadata>
<g transform="translate(0.000000,772.000000) scale(0.100000,-0.100000)"
fill="#000000" stroke="none">
<path d="M0 3855 l0 -3555 3860 0 3860 0 -1 1673 c-1 919 -5 1638 -9 1597 -14
-144 -91 -369 -248 -725 -22 -49 -108 -250 -192 -445 -294 -686 -562 -1293
-611 -1386 -69 -131 -180 -305 -249 -389 -161 -196 -275 -259 -549 -301 -92
-14 -175 -15 -621 -9 -482 6 -559 9 -1195 55 -374 28 -777 54 -895 60 -347 16
-483 35 -638 87 -161 54 -280 133 -371 247 -82 104 -258 495 -496 1106 -334
856 -507 1295 -515 1304 -14 15 -592 37 -795 30 l-190 -6 -66 148 -66 149 31
7 c17 4 229 28 471 53 242 25 449 48 460 50 18 4 20 13 21 92 1 83 4 98 68
268 153 406 320 764 551 1180 40 72 85 153 100 180 170 307 526 874 763 1213
62 90 112 165 110 166 -1 2 -39 27 -83 57 l-80 54 127 3 127 3 58 77 c68 91
234 305 242 312 3 3 31 34 61 70 72 86 86 98 132 112 50 15 104 -1 143 -42 27
-28 30 -38 30 -93 0 -54 -6 -75 -47 -157 -25 -52 -76 -135 -112 -185 l-65 -90
422 -6 c232 -3 872 -7 1422 -8 550 -1 1042 -6 1094 -11 128 -12 211 -52 302
-147 111 -115 149 -179 357 -613 33 -69 225 -465 427 -880 202 -415 389 -805
415 -867 90 -208 137 -378 149 -548 5 -55 9 747 10 1783 l1 1882 -3860 0
-3860 0 0 -3555z"/>
<path d="M2857 6423 c-90 -142 -290 -478 -429 -723 -462 -814 -758 -1419 -893
-1828 -54 -165 -60 -158 132 -168 252 -14 814 -11 916 4 108 16 193 46 212 75
7 12 117 300 244 639 127 340 240 637 252 660 60 119 173 221 286 259 119 39
235 14 329 -73 62 -56 100 -139 219 -472 165 -460 245 -630 401 -851 130 -184
169 -211 336 -236 57 -8 1886 27 1897 37 19 17 -469 1186 -774 1854 -240 526
-289 626 -315 640 -9 5 -629 59 -1376 120 -747 61 -1367 115 -1377 121 -14 8
-24 -2 -60 -58z"/>
<path d="M3611 4269 c-3 -33 -270 -759 -298 -808 -47 -86 -169 -207 -253 -253
-213 -117 -476 -155 -997 -144 -172 4 -313 5 -313 3 0 -3 27 -53 61 -111 33
-59 216 -436 405 -839 189 -402 361 -757 382 -787 48 -71 113 -114 201 -134
93 -21 928 -22 1941 -1 784 15 910 21 953 38 57 24 280 465 603 1195 150 337
302 718 291 728 -2 2 -406 -7 -898 -22 -1059 -31 -1158 -28 -1354 37 -195 65
-259 124 -400 365 -151 260 -201 364 -251 523 -45 144 -72 222 -73 210z"/>
</g>
</svg>
